<?xml version="1.0" encoding="UTF-8" standalone="no"?>
<!-- Generator: Adobe Illustrator 24.1.2, SVG Export Plug-In . SVG Version: 6.00 Build 0)  -->

<svg
   version="1.1"
   id="Слой_1"
   x="0px"
   y="0px"
   viewBox="0 0 145.2 26.2"
   xml:space="preserve"
   sodipodi:docname="ADI_FLIGHT_DIRECTOR.svg"
   width="145.2"
   height="26.200001"
   inkscape:version="1.4 (86a8ad7, 2024-10-11)"
   xmlns:inkscape="http://www.inkscape.org/namespaces/inkscape"
   xmlns:sodipodi="http://sodipodi.sourceforge.net/DTD/sodipodi-0.dtd"
   xmlns="http://www.w3.org/2000/svg"
   xmlns:svg="http://www.w3.org/2000/svg"><defs
   id="defs2" /><sodipodi:namedview
   id="namedview2"
   pagecolor="#505050"
   bordercolor="#ffffff"
   borderopacity="1"
   inkscape:showpageshadow="0"
   inkscape:pageopacity="0"
   inkscape:pagecheckerboard="1"
   inkscape:deskcolor="#505050"
   inkscape:zoom="8.7769996"
   inkscape:cx="63.11952"
   inkscape:cy="-2.9053209"
   inkscape:window-width="2560"
   inkscape:window-height="1361"
   inkscape:window-x="-9"
   inkscape:window-y="-9"
   inkscape:window-maximized="1"
   inkscape:current-layer="Слой_1" />
<style
   type="text/css"
   id="style1">
	.st0{fill-rule:evenodd;clip-rule:evenodd;fill:#00FF00;}
</style>
<g
   id="g2"
   transform="translate(23.999998,0.05000038)"
   style="display:inline">
	
	
<path
   id="path3"
   style="display:inline;fill:#ff00ff;fill-opacity:1;stroke:#000028;stroke-width:0.229512;stroke-dasharray:none;stroke-opacity:1"
   d="m 72.599609,5.25 a 7.9000001,7.9000001 0 0 0 -7.90039,7.900391 7.9000001,7.9000001 0 0 0 7.90039,7.90039 A 7.9000001,7.9000001 0 0 0 80.5,13.150391 7.9000001,7.9000001 0 0 0 72.599609,5.25 Z m 0,3.9257812 a 3.9501793,3.9251792 0 0 1 3.951172,3.9238278 3.9501793,3.9251792 0 0 1 -3.951172,3.925782 3.9501793,3.9251792 0 0 1 -3.949218,-3.925782 3.9501793,3.9251792 0 0 1 3.949218,-3.9238278 z"
   transform="translate(-23.999998,-0.05000038)" /><rect
   style="display:inline;fill:#ff00ff;fill-opacity:1;stroke:#000028;stroke-width:0.329;stroke-dasharray:none;stroke-opacity:1"
   id="rect2-0"
   width="37.782928"
   height="5.522387"
   x="106.95243"
   y="10.338807"
   transform="translate(-23.999998,-0.05000038)" /><rect
   style="display:inline;fill:#ff00ff;fill-opacity:1;stroke:#000028;stroke-width:0.329;stroke-dasharray:none;stroke-opacity:1"
   id="rect2"
   width="37.782928"
   height="5.522387"
   x="0.64824313"
   y="10.332646"
   transform="translate(-23.999998,-0.05000038)" /></g>
</svg>
