<?xml version="1.0" encoding="UTF-8" standalone="no"?>
<!-- Created with Inkscape (http://www.inkscape.org/) -->

<svg
   width="44"
   height="46"
   viewBox="0 0 11.641667 12.170833"
   version="1.1"
   id="svg1"
   inkscape:version="1.3 (0e150ed6c4, 2023-07-21)"
   sodipodi:docname="adi_head_angle _AC.svg"
   xmlns:inkscape="http://www.inkscape.org/namespaces/inkscape"
   xmlns:sodipodi="http://sodipodi.sourceforge.net/DTD/sodipodi-0.dtd"
   xmlns="http://www.w3.org/2000/svg"
   xmlns:svg="http://www.w3.org/2000/svg">
  <sodipodi:namedview
     id="namedview1"
     pagecolor="#ffffff"
     bordercolor="#111111"
     borderopacity="1"
     inkscape:showpageshadow="0"
     inkscape:pageopacity="0"
     inkscape:pagecheckerboard="1"
     inkscape:deskcolor="#d1d1d1"
     inkscape:document-units="px"
     inkscape:zoom="16"
     inkscape:cx="16.46875"
     inkscape:cy="20.53125"
     inkscape:window-width="1920"
     inkscape:window-height="1009"
     inkscape:window-x="-8"
     inkscape:window-y="-8"
     inkscape:window-maximized="1"
     inkscape:current-layer="layer1" />
  <defs
     id="defs1">
    <rect
       x="202.10136"
       y="388.92761"
       width="19.975134"
       height="28.787697"
       id="rect92" />
    <rect
       x="202.10136"
       y="388.92761"
       width="19.975134"
       height="28.787697"
       id="rect92-0" />
    <rect
       x="202.10136"
       y="388.92761"
       width="19.975134"
       height="28.787697"
       id="rect92-0-4" />
    <rect
       x="202.10136"
       y="388.92761"
       width="24.525738"
       height="24.674969"
       id="rect92-0-4-6" />
    <rect
       x="202.10136"
       y="388.92761"
       width="24.525738"
       height="24.674969"
       id="rect92-0-4-6-2" />
    <rect
       x="202.10136"
       y="388.92761"
       width="24.525738"
       height="24.674969"
       id="rect92-0-4-6-2-3" />
    <rect
       x="202.10136"
       y="388.92761"
       width="24.525738"
       height="24.674969"
       id="rect92-0-4-6-2-3-1" />
    <rect
       x="202.10136"
       y="388.92761"
       width="24.525738"
       height="24.674969"
       id="rect92-0-4-6-0" />
    <rect
       x="202.10136"
       y="388.92761"
       width="24.525738"
       height="24.674969"
       id="rect92-0-4-6-0-2" />
    <rect
       x="202.10136"
       y="388.92761"
       width="24.525738"
       height="24.674969"
       id="rect92-0-4-6-0-2-5" />
    <rect
       x="202.10136"
       y="388.92761"
       width="24.525738"
       height="24.674969"
       id="rect92-0-4-6-0-2-5-2" />
    <rect
       x="202.10136"
       y="388.92761"
       width="19.975134"
       height="28.787697"
       id="rect92-0-4-0" />
  </defs>
  <g
     inkscape:label="Layer 1"
     inkscape:groupmode="layer"
     id="layer1">
    <g
       id="g91"
       transform="translate(-147.90233,-252.64385)">
      <path
         style="font-variation-settings:'opsz' 36;fill:#ffffff;stroke:#ffffff;stroke-width:0.437999;stroke-miterlimit:3.3"
         d="m 153.64136,252.92186 c 0,0 0.90291,0.31571 0.95787,0.92024 0.055,0.60454 0,4.01191 0,4.01191 l 4.58896,2.39066 v 1.07167 l -4.75383,-1.45637 v 0.87932 l 0.71445,0.74193 v 0.65949 l -0.96176,0.5221 1.89604,1.34646 v 0.54958 h -2.36318"
         id="path91"
         sodipodi:nodetypes="ccccccccccccc" />
      <path
         style="font-variation-settings:'opsz' 36;fill:#ffffff;stroke:#ffffff;stroke-width:0.437999;stroke-miterlimit:3.3"
         d="m 153.7939,252.9167 c 0,0 -0.85537,0.32087 -0.91033,0.9254 -0.055,0.60454 0,4.01191 0,4.01191 l -4.58896,2.39066 v 1.07167 l 4.75383,-1.45637 v 0.87932 l -0.71445,0.74193 v 0.65949 l 0.96176,0.5221 -1.89604,1.34646 v 0.54958 h 2.36318"
         id="path91-7"
         sodipodi:nodetypes="ccccccccccccc" />
    </g>
  </g>
</svg>
