<?xml version="1.0" encoding="utf-8"?>
<!-- Generator: Adobe Illustrator 24.1.2, SVG Export Plug-In . SVG Version: 6.00 Build 0)  -->
<svg version="1.1" id="Слой_1" xmlns="http://www.w3.org/2000/svg" xmlns:xlink="http://www.w3.org/1999/xlink" x="0px" y="0px"
	 viewBox="0 0 97.2 26.2" style="enable-background:new 0 0 97.2 26.2;" xml:space="preserve">
<style type="text/css">
	.st0{fill-rule:evenodd;clip-rule:evenodd;fill:#00FF00;}
</style>
<g>
	<path class="st0" d="M48.6,26.1c-6.4,0-11.9-4.6-12.9-11l-35.6,0l0-4.2l35.7,0c1-6.3,6.4-10.9,12.8-10.9s11.9,4.6,12.9,11l35.6,0
		l0,4.2l-35.7,0C60.5,21.5,55,26.1,48.6,26.1z M48.6,5.1c-4.4,0-8,3.6-8,8s3.6,8,8,8s8-3.6,8-8S53,5.1,48.6,5.1z"/>
	<path d="M48.6,0.1c6.5,0,11.8,4.7,12.8,10.9h35.7v4.1H61.4c-1,6.2-6.3,10.9-12.8,10.9s-11.8-4.7-12.8-10.9H0.1V11h35.7
		C36.8,4.8,42.1,0.1,48.6,0.1 M48.6,21.1c4.4,0,8-3.6,8-8s-3.6-8-8-8s-8,3.6-8,8S44.2,21.1,48.6,21.1 M48.6,0
		c-6.4,0-11.9,4.6-12.9,10.9H0.1H0V11v4.1v0.1h0.1h35.6c1.1,6.3,6.5,10.9,12.9,10.9s11.9-4.6,12.9-10.9h35.6h0.1v-0.1V11v-0.1h-0.1
		H61.5C60.5,4.6,55,0,48.6,0L48.6,0z M48.6,21c-4.4,0-7.9-3.5-7.9-7.9s3.5-7.9,7.9-7.9s7.9,3.5,7.9,7.9S53,21,48.6,21L48.6,21z"/>
</g>
</svg>
