<?xml version="1.0" encoding="UTF-8" standalone="no"?>
<!-- Created with Inkscape (http://www.inkscape.org/) -->

<svg
   width="78.446815"
   height="61.577267"
   viewBox="0 0 20.75572 16.292318"
   version="1.1"
   id="svg1"
   xml:space="preserve"
   sodipodi:docname="ADI_SLAT_DIAL.svg"
   inkscape:version="1.4.2 (f4327f4, 2025-05-13)"
   xmlns:inkscape="http://www.inkscape.org/namespaces/inkscape"
   xmlns:sodipodi="http://sodipodi.sourceforge.net/DTD/sodipodi-0.dtd"
   xmlns="http://www.w3.org/2000/svg"
   xmlns:svg="http://www.w3.org/2000/svg"><sodipodi:namedview
     id="namedview1"
     pagecolor="#ffffff"
     bordercolor="#111111"
     borderopacity="1"
     inkscape:showpageshadow="0"
     inkscape:pageopacity="0"
     inkscape:pagecheckerboard="1"
     inkscape:deskcolor="#d1d1d1"
     inkscape:zoom="18.533956"
     inkscape:cx="11.141712"
     inkscape:cy="22.040627"
     inkscape:window-width="1920"
     inkscape:window-height="1009"
     inkscape:window-x="-8"
     inkscape:window-y="-8"
     inkscape:window-maximized="1"
     inkscape:current-layer="g98" /><defs
     id="defs1" /><g
     id="layer6"
     transform="translate(-7.7138438,-111.69502)"><g
       id="g98"
       style="stroke-linecap:round"><path
         style="fill:none;stroke:#ffffff;stroke-width:0.529167;stroke-linecap:round;stroke-miterlimit:3.3;stroke-dasharray:none;stroke-opacity:1"
         id="path19"
         d="m 9.8481083,120.15436 a 1.8698404,1.8698404 0 0 1 -1.6195539,-0.93531 1.8698404,1.8698404 0 0 1 6.743e-4,-1.87023 1.8698404,1.8698404 0 0 1 1.620228,-0.93414" /><path
         style="fill:none;stroke:#ffffff;stroke-width:0.529167;stroke-linecap:round;stroke-linejoin:miter;stroke-dasharray:none;stroke-opacity:1"
         d="m 9.8481083,120.15436 4.0349617,0.0168"
         id="path20-7" /></g><path
       style="display:none;fill:#73ae27;fill-opacity:1;stroke:#ffffff;stroke-width:0.529167;stroke-linecap:butt;stroke-linejoin:miter;stroke-dasharray:none;stroke-opacity:1"
       d="m 7.6556049,115.82503 c 0,0 -0.4672067,0.31893 -1.0664197,0.83099 -0.5031069,0.42993 -0.5851703,0.49028 -1.0709321,1.11205 -0.4857615,0.62178 -0.7384481,1.04746 -0.9715232,1.75846 -0.252015,0.76878 -0.3364974,1.32127 -0.3594637,1.96247 -0.02105,0.58771 0.1817352,1.29348 0.3011722,1.54473 0.1543663,0.32473 0.2023531,0.43424 0.5246227,0.71893 0.3150249,0.27829 0.8552439,0.33258 1.1463975,0.31089 0.3151977,-0.0183 0.8003777,-0.0541 1.0845704,-0.31079 0.2841926,-0.2567 0.5402731,-0.58391 0.4674088,-1.11825 -0.076449,-0.56063 -0.2695681,-0.80547 -0.4250119,-1.29123 -0.1554437,-0.48576 -0.2679135,-0.86628 -0.3691789,-1.37956 -0.051197,-0.2595 -0.1359122,-0.72001 -0.097152,-1.30185 0.036734,-0.55143 0.1304966,-0.83691 0.3108876,-1.37956 0.217801,-0.65519 0.5246227,-1.45728 0.5246223,-1.45728 z"
       id="path24" /><path
       style="fill:none;stroke:#ffffff;stroke-width:0.529167;stroke-linecap:round;stroke-linejoin:miter;stroke-dasharray:none;stroke-opacity:1"
       d="m 9.8494567,116.41468 4.1381693,0.0214"
       id="path20" /><path
       style="fill:none;stroke:#ffffff;stroke-width:0.582083;stroke-linecap:butt;stroke-linejoin:miter;stroke-dasharray:none;stroke-opacity:1"
       d="m 20.581646,113.0754 1.662469,-1.14037"
       id="path23" /><path
       style="fill:none;stroke:#ffffff;stroke-width:0.582083;stroke-linecap:butt;stroke-linejoin:miter;stroke-dasharray:none;stroke-opacity:1"
       d="m 21.744169,115.42361 2.001723,-0.23949"
       id="path23-2" /><path
       style="fill:none;stroke:#ffffff;stroke-width:0.582083;stroke-linecap:butt;stroke-linejoin:miter;stroke-dasharray:none;stroke-opacity:1"
       d="m 26.429143,118.39528 2.015995,-0.004"
       id="path23-2-3" /><path
       style="fill:none;stroke:#ffffff;stroke-width:0.582083;stroke-linecap:butt;stroke-linejoin:miter;stroke-dasharray:none;stroke-opacity:1"
       d="m 26.432841,120.01314 1.998931,0.26178"
       id="path23-2-3-9" /><path
       style="fill:none;stroke:#ffffff;stroke-width:0.582083;stroke-linecap:butt;stroke-linejoin:miter;stroke-dasharray:none;stroke-opacity:1"
       d="m 25.578636,122.66455 1.887467,0.70832"
       id="path23-2-3-4" /><path
       style="fill:none;stroke:#ffffff;stroke-width:0.582083;stroke-linecap:butt;stroke-linejoin:miter;stroke-dasharray:none;stroke-opacity:1"
       d="m 23.451505,126.51602 1.587903,1.24208"
       id="path23-2-3-4-7" /><g
       id="g99"
       style="display:none"><path
         style="fill:none;stroke:#73ae27;stroke-width:0.529167;stroke-linecap:square;stroke-miterlimit:3.3;stroke-dasharray:none;stroke-opacity:1"
         id="path19-2"
         d="m 14.214378,120.16198 a 1.8698404,1.8698404 0 0 1 -1.810501,-0.86204 1.8698404,1.8698404 0 0 1 0.01094,-2.00522 1.8698404,1.8698404 0 0 1 1.819796,-0.84224" /><path
         style="display:inline;fill:none;stroke:#73ae27;stroke-width:0.529167;stroke-linecap:butt;stroke-linejoin:miter;stroke-dasharray:none;stroke-opacity:1"
         d="m 14.197652,116.44793 13.625273,1.93985 -13.608547,1.7742"
         id="path22" /></g></g></svg>
