<?xml version="1.0" encoding="UTF-8" standalone="no"?>
<!-- Created with Inkscape (http://www.inkscape.org/) -->

<svg
   width="42.447632"
   height="91.125763"
   viewBox="0 0 11.230935 24.110358"
   version="1.1"
   id="svg1"
   xml:space="preserve"
   inkscape:version="1.4.2 (f4327f4, 2025-05-13)"
   sodipodi:docname="BLEED_ENGINE_OFF.svg"
   xmlns:inkscape="http://www.inkscape.org/namespaces/inkscape"
   xmlns:sodipodi="http://sodipodi.sourceforge.net/DTD/sodipodi-0.dtd"
   xmlns="http://www.w3.org/2000/svg"
   xmlns:svg="http://www.w3.org/2000/svg"><sodipodi:namedview
     id="namedview1"
     pagecolor="#ffffff"
     bordercolor="#111111"
     borderopacity="1"
     inkscape:showpageshadow="0"
     inkscape:pageopacity="0"
     inkscape:pagecheckerboard="1"
     inkscape:deskcolor="#d1d1d1"
     inkscape:document-units="px"
     inkscape:zoom="6.0601261"
     inkscape:cx="34.900264"
     inkscape:cy="42.160839"
     inkscape:window-width="1920"
     inkscape:window-height="1009"
     inkscape:window-x="-8"
     inkscape:window-y="-8"
     inkscape:window-maximized="1"
     inkscape:current-layer="layer1"><inkscape:page
       x="0"
       y="0"
       width="11.230935"
       height="24.110357"
       id="page2"
       margin="0"
       bleed="0" /></sodipodi:namedview><defs
     id="defs1" /><g
     inkscape:label="Слой 1"
     inkscape:groupmode="layer"
     id="layer1"
     transform="translate(-79.305019,-118.04161)"><g
       id="path1"
       style="opacity:1;fill:#555555;fill-opacity:1"><path
         style="baseline-shift:baseline;display:inline;overflow:visible;vector-effect:none;stroke-linecap:round;enable-background:accumulate;stop-color:#000000;stop-opacity:1;fill:#555555;fill-opacity:1"
         d="m 80.448128,118.24004 c 0,0 -0.561269,2.05797 -0.701585,3.22728 -0.140317,1.1693 -0.280633,3.04019 -0.23386,4.5369 0.04677,1.49671 0.23386,4.81753 0.374176,6.26747 0.140317,1.44993 0.223445,2.18276 0.467723,4.11595 0.017,0.13454 2.198293,5.56589 2.198293,5.56589"
         id="path2" /><path
         style="baseline-shift:baseline;display:inline;overflow:visible;vector-effect:none;fill:#555555;stroke-linecap:round;enable-background:accumulate;stop-color:#000000;stop-opacity:1;fill-opacity:1"
         d="m 80.5,118.04883 a 0.1984375,0.1984375 0 0 0 -0.244141,0.13867 c 0,0 -0.562538,2.05174 -0.707031,3.25586 -0.141436,1.17862 -0.281696,3.05215 -0.234375,4.56641 0.047,1.50406 0.233515,4.81922 0.375,6.28125 0.140423,1.45102 0.224392,2.18727 0.46875,4.12109 0.0062,0.0491 0.0099,0.047 0.01563,0.0644 0.0057,0.0175 0.01265,0.0378 0.02148,0.0625 0.01768,0.0493 0.04139,0.11595 0.07227,0.19727 0.06175,0.16264 0.148377,0.386 0.251953,0.65039 0.207152,0.52878 0.482065,1.2207 0.75586,1.9082 0.547588,1.37501 1.09375,2.73242 1.09375,2.73242 a 0.1984375,0.1984375 0 0 0 0.257812,0.10938 0.1984375,0.1984375 0 0 0 0.109375,-0.25781 c 0,0 -0.544489,-1.35617 -1.091797,-2.73047 -0.273654,-0.68715 -0.547284,-1.37882 -0.753906,-1.90625 -0.103311,-0.26372 -0.191155,-0.48635 -0.251953,-0.64649 -0.0304,-0.0801 -0.05417,-0.14442 -0.07031,-0.18945 -0.0081,-0.0225 -0.01401,-0.0418 -0.01758,-0.0527 -0.0036,-0.011 -0.0051,-0.0309 0,0.01 -0.244198,-1.93256 -0.326586,-2.6625 -0.466797,-4.11133 -0.139146,-1.43786 -0.326506,-4.76455 -0.373047,-6.2539 -0.04622,-1.47917 0.09322,-3.34784 0.232422,-4.50782 0.13614,-1.1345 0.695313,-3.19726 0.695313,-3.19726 A 0.1984375,0.1984375 0 0 0 80.5,118.04883 Z"
         id="path6" /></g><g
       id="path1-4"
       style="opacity:1;fill:#555555;fill-opacity:1"><path
         style="baseline-shift:baseline;display:inline;overflow:visible;vector-effect:none;stroke-linecap:round;enable-background:accumulate;stop-color:#000000;stop-opacity:1;fill:#555555;fill-opacity:1"
         d="m 89.392836,118.24004 c 0,0 0.561269,2.05797 0.701585,3.22728 0.140317,1.1693 0.280633,3.04019 0.23386,4.5369 -0.04677,1.49671 -0.23386,4.81753 -0.374176,6.26747 -0.140317,1.44993 -0.223445,2.18276 -0.467723,4.11595 -0.017,0.13454 -2.198293,5.56589 -2.198293,5.56589"
         id="path7" /><path
         style="baseline-shift:baseline;display:inline;overflow:visible;vector-effect:none;fill:#555555;stroke-linecap:round;enable-background:accumulate;stop-color:#000000;stop-opacity:1;fill-opacity:1"
         d="m 89.339844,118.04883 a 0.1984375,0.1984375 0 0 0 -0.138672,0.24414 c 0,0 0.559173,2.06276 0.695312,3.19726 0.139199,1.15998 0.2806,3.02865 0.234375,4.50782 -0.04654,1.48935 -0.235853,4.81604 -0.375,6.2539 -0.14021,1.44883 -0.222598,2.17877 -0.466797,4.11133 0.0051,-0.0406 0.0036,-0.0207 0,-0.01 -0.0036,0.011 -0.0095,0.0302 -0.01758,0.0527 -0.01614,0.045 -0.03991,0.10938 -0.07031,0.18945 -0.0608,0.16014 -0.146689,0.38277 -0.25,0.64649 -0.206622,0.52743 -0.480253,1.2191 -0.753906,1.90625 -0.547308,1.3743 -1.09375,2.73047 -1.09375,2.73047 a 0.1984375,0.1984375 0 0 0 0.111328,0.25781 0.1984375,0.1984375 0 0 0 0.257812,-0.10938 c 0,0 0.544208,-1.35741 1.091797,-2.73242 0.273795,-0.6875 0.548707,-1.37942 0.755859,-1.9082 0.103577,-0.26439 0.190208,-0.48775 0.251954,-0.65039 0.03087,-0.0813 0.05654,-0.14796 0.07422,-0.19727 0.0088,-0.0247 0.01581,-0.045 0.02148,-0.0625 0.0057,-0.0175 0.0094,-0.0154 0.01563,-0.0644 0.244358,-1.93382 0.328326,-2.67007 0.46875,-4.12109 0.141485,-1.46203 0.328,-4.77719 0.375,-6.28125 0.04732,-1.51426 -0.09489,-3.38779 -0.236328,-4.56641 -0.144493,-1.20412 -0.707032,-3.25586 -0.707032,-3.25586 a 0.1984375,0.1984375 0 0 0 -0.24414,-0.13867 z"
         id="path8" /></g><g
       id="path3"
       style="opacity:1;fill:#555555;fill-opacity:1"><path
         style="baseline-shift:baseline;display:inline;overflow:visible;vector-effect:none;enable-background:accumulate;stop-color:#000000;stop-opacity:1;fill:#555555;fill-opacity:1"
         d="m 82.552878,141.95353 h 4.735213"
         id="path9" /><path
         style="baseline-shift:baseline;display:inline;overflow:visible;vector-effect:none;fill:#555555;enable-background:accumulate;stop-color:#000000;stop-opacity:1;fill-opacity:1"
         d="m 82.552734,141.75586 v 0.39648 h 4.736328 v -0.39648 z"
         id="path10" /></g><g
       id="path5"
       style="opacity:1;fill:#555555;fill-opacity:1"><path
         style="baseline-shift:baseline;display:inline;overflow:visible;vector-effect:none;enable-background:accumulate;stop-color:#000000;stop-opacity:1;fill:#555555;fill-opacity:1"
         d="m 80.44813,118.24004 h 8.944708"
         id="path13" /><path
         style="baseline-shift:baseline;display:inline;overflow:visible;vector-effect:none;fill:#555555;enable-background:accumulate;stop-color:#000000;stop-opacity:1;fill-opacity:1"
         d="m 80.447266,118.04102 v 0.39843 h 8.945312 v -0.39843 z"
         id="path14" /></g><path
       style="fill:#555555;stroke:#555555;stroke-width:0.264583px;stroke-linecap:butt;stroke-linejoin:miter;stroke-opacity:1;fill-opacity:1"
       d="m 80.599733,118.43945 -0.420893,1.74227 2.373894,21.57414 h 4.600217 l 0.551664,-1.37429 1.687963,-21.94212 h -8.792845"
       id="path15"
       sodipodi:nodetypes="ccccccc" /><path
       style="fill:#000000;stroke:none;stroke-width:0.264583px;stroke-linecap:butt;stroke-linejoin:miter;stroke-opacity:1;fill-opacity:1"
       d="m 89.711618,136.18945 h -9.581507 l 0.03307,0.25468 0.04897,0.14181 h 9.417033 l 0.04523,-0.12651 0.0092,-0.0475 z"
       id="path16" /></g></svg>
