<?xml version="1.0" encoding="UTF-8" standalone="no"?>
<!-- Created with Inkscape (http://www.inkscape.org/) -->

<svg
   width="102.77057"
   height="29.949982"
   viewBox="0 0 27.191379 7.9242658"
   version="1.1"
   id="svg1"
   xml:space="preserve"
   inkscape:version="1.4.2 (f4327f4, 2025-05-13)"
   sodipodi:docname="BLEED_BRAKE_ON_1.svg"
   xmlns:inkscape="http://www.inkscape.org/namespaces/inkscape"
   xmlns:sodipodi="http://sodipodi.sourceforge.net/DTD/sodipodi-0.dtd"
   xmlns="http://www.w3.org/2000/svg"
   xmlns:svg="http://www.w3.org/2000/svg"><sodipodi:namedview
     id="namedview1"
     pagecolor="#ffffff"
     bordercolor="#111111"
     borderopacity="1"
     inkscape:showpageshadow="0"
     inkscape:pageopacity="0"
     inkscape:pagecheckerboard="1"
     inkscape:deskcolor="#d1d1d1"
     inkscape:document-units="px"
     inkscape:zoom="5.6568543"
     inkscape:cx="49.055533"
     inkscape:cy="31.908193"
     inkscape:window-width="1920"
     inkscape:window-height="1009"
     inkscape:window-x="-8"
     inkscape:window-y="-8"
     inkscape:window-maximized="1"
     inkscape:current-layer="layer1"><inkscape:page
       x="0"
       y="0"
       width="27.19138"
       height="7.9242659"
       id="page2"
       margin="0"
       bleed="0" /></sodipodi:namedview><defs
     id="defs1" /><g
     inkscape:label="Слой 1"
     inkscape:groupmode="layer"
     id="layer1"
     transform="translate(-181.13593,-98.00167)"><g
       id="g1"><rect
         style="fill:none;fill-opacity:1;stroke:#00ff00;stroke-width:0.396875;stroke-linecap:round;stroke-linejoin:round;stroke-miterlimit:6.5;stroke-dasharray:none;stroke-dashoffset:17.5577;stroke-opacity:1;paint-order:stroke markers fill"
         id="rect8-1"
         width="8.8852739"
         height="7.4962115"
         x="181.34996"
         y="98.215706" /><path
         style="fill:none;fill-opacity:1;stroke:#00ff00;stroke-width:0.264583px;stroke-linecap:butt;stroke-linejoin:miter;stroke-opacity:1"
         d="m 182.70936,103.85672 v -3.897717 c 0,0 0,-0.87828 0.90177,-0.89856 0.96202,-0.0216 0.96222,0.90223 0.96222,0.90223 v 3.894047 c 0,0 -1e-5,1.00664 -0.93255,1.01078 -0.93144,0.004 -0.93144,-1.01078 -0.93144,-1.01078 z"
         id="path14-2-8-1-5"
         sodipodi:nodetypes="ccsccsc" /><path
         style="fill:none;fill-opacity:1;stroke:#00ff00;stroke-width:0.264583px;stroke-linecap:butt;stroke-linejoin:miter;stroke-opacity:1"
         d="m 186.65978,103.85672 v -3.897717 c 0,0 0,-0.87828 0.90177,-0.89856 0.96202,-0.0216 0.96222,0.90223 0.96222,0.90223 v 3.894047 c 0,0 -1e-5,1.00664 -0.93255,1.01078 -0.93144,0.004 -0.93144,-1.01078 -0.93144,-1.01078 z"
         id="path14-2-8-1-2-27"
         sodipodi:nodetypes="ccsccsc" /></g><g
       id="g2"><rect
         style="fill:none;fill-opacity:1;stroke:#00ff00;stroke-width:0.396875;stroke-linecap:round;stroke-linejoin:round;stroke-miterlimit:6.5;stroke-dasharray:none;stroke-dashoffset:17.5577;stroke-opacity:1;paint-order:stroke markers fill"
         id="rect8-1-3"
         width="8.8852739"
         height="7.4962115"
         x="199.22801"
         y="98.215706" /><path
         style="fill:none;fill-opacity:1;stroke:#00ff00;stroke-width:0.264583px;stroke-linecap:butt;stroke-linejoin:miter;stroke-opacity:1"
         d="m 200.5874,103.85671 v -3.897707 c 0,0 0,-0.87828 0.90177,-0.89856 0.96202,-0.0216 0.96222,0.90223 0.96222,0.90223 v 3.894037 c 0,0 -1e-5,1.00664 -0.93255,1.01078 -0.93144,0.004 -0.93144,-1.01078 -0.93144,-1.01078 z"
         id="path14-2-8-1-5-2"
         sodipodi:nodetypes="ccsccsc" /><path
         style="fill:none;fill-opacity:1;stroke:#00ff00;stroke-width:0.264583px;stroke-linecap:butt;stroke-linejoin:miter;stroke-opacity:1"
         d="m 204.53782,103.85671 v -3.897707 c 0,0 0,-0.87828 0.90177,-0.89856 0.96202,-0.0216 0.96222,0.90223 0.96222,0.90223 v 3.894037 c 0,0 -1e-5,1.00664 -0.93255,1.01078 -0.93144,0.004 -0.93144,-1.01078 -0.93144,-1.01078 z"
         id="path14-2-8-1-2-27-2"
         sodipodi:nodetypes="ccsccsc" /></g></g></svg>
