<?xml version="1.0" encoding="UTF-8" standalone="no"?>
<!-- Created with Inkscape (http://www.inkscape.org/) -->

<svg
   width="42.447632"
   height="91.125763"
   viewBox="0 0 11.230935 24.110358"
   version="1.1"
   id="svg1"
   xml:space="preserve"
   inkscape:version="1.4.2 (f4327f4, 2025-05-13)"
   sodipodi:docname="BLEED_ENGINE.svg"
   xmlns:inkscape="http://www.inkscape.org/namespaces/inkscape"
   xmlns:sodipodi="http://sodipodi.sourceforge.net/DTD/sodipodi-0.dtd"
   xmlns="http://www.w3.org/2000/svg"
   xmlns:svg="http://www.w3.org/2000/svg"><sodipodi:namedview
     id="namedview1"
     pagecolor="#ffffff"
     bordercolor="#111111"
     borderopacity="1"
     inkscape:showpageshadow="0"
     inkscape:pageopacity="0"
     inkscape:pagecheckerboard="1"
     inkscape:deskcolor="#d1d1d1"
     inkscape:document-units="px"
     inkscape:zoom="1"
     inkscape:cx="85.5"
     inkscape:cy="22.5"
     inkscape:window-width="1920"
     inkscape:window-height="1009"
     inkscape:window-x="-8"
     inkscape:window-y="-8"
     inkscape:window-maximized="1"
     inkscape:current-layer="layer1"><inkscape:page
       x="0"
       y="0"
       width="11.230935"
       height="24.110357"
       id="page2"
       margin="0"
       bleed="0" /></sodipodi:namedview><defs
     id="defs1" /><g
     inkscape:label="Слой 1"
     inkscape:groupmode="layer"
     id="layer1"
     transform="translate(-79.305019,-118.04161)"><path
       style="fill:none;stroke:#00ff00;stroke-width:0.396875;stroke-linecap:round;stroke-linejoin:miter;stroke-dasharray:none;stroke-opacity:1"
       d="m 80.448128,118.24004 c 0,0 -0.561269,2.05797 -0.701585,3.22728 -0.140317,1.1693 -0.280633,3.04019 -0.23386,4.5369 0.04677,1.49671 0.23386,4.81753 0.374176,6.26747 0.140317,1.44993 0.223445,2.18276 0.467723,4.11595 0.017,0.13454 2.198293,5.56589 2.198293,5.56589"
       id="path1"
       sodipodi:nodetypes="cssssc" /><path
       style="fill:none;stroke:#00ff00;stroke-width:0.396875;stroke-linecap:round;stroke-linejoin:miter;stroke-dasharray:none;stroke-opacity:1"
       d="m 89.392836,118.24004 c 0,0 0.561269,2.05797 0.701585,3.22728 0.140317,1.1693 0.280633,3.04019 0.23386,4.5369 -0.04677,1.49671 -0.23386,4.81753 -0.374176,6.26747 -0.140317,1.44993 -0.223445,2.18276 -0.467723,4.11595 -0.017,0.13454 -2.198293,5.56589 -2.198293,5.56589"
       id="path1-4"
       sodipodi:nodetypes="cssssc" /><path
       style="fill:none;stroke:#00ff00;stroke-width:0.396875;stroke-linecap:butt;stroke-linejoin:miter;stroke-dasharray:none;stroke-opacity:1"
       d="m 82.552878,141.95353 h 4.735213"
       id="path3" /><path
       style="fill:none;stroke:#00ff00;stroke-width:0.396875;stroke-linecap:butt;stroke-linejoin:miter;stroke-dasharray:none;stroke-opacity:1"
       d="m 80.354584,136.38764 h 9.1318"
       id="path4" /><path
       style="fill:none;stroke:#00ff00;stroke-width:0.396875;stroke-linecap:butt;stroke-linejoin:miter;stroke-dasharray:none;stroke-opacity:1"
       d="m 80.44813,118.24004 h 8.944708"
       id="path5" /></g></svg>
